HIERARCHY
ROOT mixamorig:Hips
{
	OFFSET 0.000000 103.991501 0.000000
	CHANNELS 6 Xposition Yposition Zposition Xrotation Yrotation Zrotation
	JOINT mixamorig:Spine
	{
		OFFSET 0.000000 10.181602 0.131500
		CHANNELS 3 Xrotation Yrotation Zrotation
		JOINT mixamorig:Spine1
		{
			OFFSET 0.000000 10.083504 -1.000800
			CHANNELS 3 Xrotation Yrotation Zrotation
			JOINT mixamorig:Spine2
			{
				OFFSET 0.000000 9.100006 -1.373400
				CHANNELS 3 Xrotation Yrotation Zrotation
				JOINT mixamorig:Neck
				{
					OFFSET 0.000000 16.671707 -2.516200
					CHANNELS 3 Xrotation Yrotation Zrotation
					JOINT mixamorig:Head
					{
						OFFSET 0.000000 9.617905 1.685000
						CHANNELS 3 Xrotation Yrotation Zrotation
						JOINT mixamorig:HeadTop_End
						{
							OFFSET 0.000000 17.815201 2.585000
							CHANNELS 3 Xrotation Yrotation Zrotation
							End Site
							{
								OFFSET 0.000000 13.794495 0.000000
							}
						}
						JOINT mixamorig:LeftEye
						{
							OFFSET 3.067600 6.409500 9.283600
							CHANNELS 3 Xrotation Yrotation Zrotation
							End Site
							{
								OFFSET 0.000000 13.794495 0.000000
							}
						}
						JOINT mixamorig:RightEye
						{
							OFFSET -3.067600 6.409500 9.283500
							CHANNELS 3 Xrotation Yrotation Zrotation
							End Site
							{
								OFFSET 0.000000 13.794495 0.000000
							}
						}
					}
				}
				JOINT mixamorig:LeftShoulder
				{
					OFFSET 4.570400 10.945999 -2.628000
					CHANNELS 3 Xrotation Yrotation Zrotation
					JOINT mixamorig:LeftArm
					{
						OFFSET 10.592400 -0.524597 -2.232100
						CHANNELS 3 Xrotation Yrotation Zrotation
						JOINT mixamorig:LeftForeArm
						{
							OFFSET 27.841499 0.000000 0.000000
							CHANNELS 3 Xrotation Yrotation Zrotation
							JOINT mixamorig:LeftHand
							{
								OFFSET 28.328800 0.000000 0.000000
								CHANNELS 3 Xrotation Yrotation Zrotation
								JOINT mixamorig:LeftHandThumb1
								{
									OFFSET 2.466103 -1.576218 2.681689
									CHANNELS 3 Xrotation Yrotation Zrotation
									JOINT mixamorig:LeftHandThumb2
									{
										OFFSET 3.229782 -1.864716 1.864716
										CHANNELS 3 Xrotation Yrotation Zrotation
										JOINT mixamorig:LeftHandThumb3
										{
											OFFSET 2.652611 -1.531494 1.531488
											CHANNELS 3 Xrotation Yrotation Zrotation
											JOINT mixamorig:LeftHandThumb4
											{
												OFFSET 1.954605 -1.128494 1.128493
												CHANNELS 3 Xrotation Yrotation Zrotation
												End Site
												{
													OFFSET -0.000404 2.523392 0.000683
												}
											}
										}
									}
								}
								JOINT mixamorig:LeftHandIndex1
								{
									OFFSET 9.109299 -0.518112 2.259867
									CHANNELS 3 Xrotation Yrotation Zrotation
									JOINT mixamorig:LeftHandIndex2
									{
										OFFSET 3.676399 0.000000 0.000000
										CHANNELS 3 Xrotation Yrotation Zrotation
										JOINT mixamorig:LeftHandIndex3
										{
											OFFSET 2.883102 0.000000 0.000000
											CHANNELS 3 Xrotation Yrotation Zrotation
											JOINT mixamorig:LeftHandIndex4
											{
												OFFSET 2.392700 0.000000 0.000000
												CHANNELS 3 Xrotation Yrotation Zrotation
												End Site
												{
													OFFSET 0.000000 2.392700 0.001080
												}
											}
										}
									}
								}
								JOINT mixamorig:LeftHandMiddle1
								{
									OFFSET 9.533401 0.000000 0.000000
									CHANNELS 3 Xrotation Yrotation Zrotation
									JOINT mixamorig:LeftHandMiddle2
									{
										OFFSET 3.698196 0.000000 0.000000
										CHANNELS 3 Xrotation Yrotation Zrotation
										JOINT mixamorig:LeftHandMiddle3
										{
											OFFSET 2.950897 0.000000 0.000000
											CHANNELS 3 Xrotation Yrotation Zrotation
											JOINT mixamorig:LeftHandMiddle4
											{
												OFFSET 2.833900 0.000000 0.000000
												CHANNELS 3 Xrotation Yrotation Zrotation
												End Site
												{
													OFFSET 0.000000 2.833893 0.001278
												}
											}
										}
									}
								}
								JOINT mixamorig:LeftHandRing1
								{
									OFFSET 9.104500 -0.043060 -1.865119
									CHANNELS 3 Xrotation Yrotation Zrotation
									JOINT mixamorig:LeftHandRing2
									{
										OFFSET 3.153999 0.000000 0.000000
										CHANNELS 3 Xrotation Yrotation Zrotation
										JOINT mixamorig:LeftHandRing3
										{
											OFFSET 2.937698 0.000000 0.000000
											CHANNELS 3 Xrotation Yrotation Zrotation
											JOINT mixamorig:LeftHandRing4
											{
												OFFSET 2.647499 0.000000 0.000000
												CHANNELS 3 Xrotation Yrotation Zrotation
												End Site
												{
													OFFSET 0.000000 2.647507 0.001195
												}
											}
										}
									}
								}
								JOINT mixamorig:LeftHandPinky1
								{
									OFFSET 8.077797 -0.486984 -3.806321
									CHANNELS 3 Xrotation Yrotation Zrotation
									JOINT mixamorig:LeftHandPinky2
									{
										OFFSET 3.599998 0.000000 0.000000
										CHANNELS 3 Xrotation Yrotation Zrotation
										JOINT mixamorig:LeftHandPinky3
										{
											OFFSET 2.114197 0.000000 0.000000
											CHANNELS 3 Xrotation Yrotation Zrotation
											JOINT mixamorig:LeftHandPinky4
											{
												OFFSET 1.975700 0.000000 0.000000
												CHANNELS 3 Xrotation Yrotation Zrotation
												End Site
												{
													OFFSET 0.000000 1.975693 0.000892
												}
											}
										}
									}
								}
							}
						}
					}
				}
				JOINT mixamorig:RightShoulder
				{
					OFFSET -4.570000 10.946198 -2.628000
					CHANNELS 3 Xrotation Yrotation Zrotation
					JOINT mixamorig:RightArm
					{
						OFFSET -10.592800 -0.524796 -2.232100
						CHANNELS 3 Xrotation Yrotation Zrotation
						JOINT mixamorig:RightForeArm
						{
							OFFSET -27.841499 0.000000 0.000000
							CHANNELS 3 Xrotation Yrotation Zrotation
							JOINT mixamorig:RightHand
							{
								OFFSET -28.328800 0.000000 0.000000
								CHANNELS 3 Xrotation Yrotation Zrotation
								JOINT mixamorig:RightHandPinky1
								{
									OFFSET -8.076698 -0.486725 -3.806227
									CHANNELS 3 Xrotation Yrotation Zrotation
									JOINT mixamorig:RightHandPinky2
									{
										OFFSET -3.599998 0.000000 0.000000
										CHANNELS 3 Xrotation Yrotation Zrotation
										JOINT mixamorig:RightHandPinky3
										{
											OFFSET -2.114197 0.000000 0.000000
											CHANNELS 3 Xrotation Yrotation Zrotation
											JOINT mixamorig:RightHandPinky4
											{
												OFFSET -1.975700 0.000000 0.000000
												CHANNELS 3 Xrotation Yrotation Zrotation
												End Site
												{
													OFFSET 0.000000 1.975693 0.000919
												}
											}
										}
									}
								}
								JOINT mixamorig:RightHandRing1
								{
									OFFSET -9.103600 -0.043030 -1.865120
									CHANNELS 3 Xrotation Yrotation Zrotation
									JOINT mixamorig:RightHandRing2
									{
										OFFSET -3.153999 0.000000 0.000000
										CHANNELS 3 Xrotation Yrotation Zrotation
										JOINT mixamorig:RightHandRing3
										{
											OFFSET -2.937698 0.000000 0.000000
											CHANNELS 3 Xrotation Yrotation Zrotation
											JOINT mixamorig:RightHandRing4
											{
												OFFSET -2.647499 0.000000 0.000000
												CHANNELS 3 Xrotation Yrotation Zrotation
												End Site
												{
													OFFSET 0.000000 2.647507 0.001231
												}
											}
										}
									}
								}
								JOINT mixamorig:RightHandMiddle1
								{
									OFFSET -9.532501 0.000000 0.000000
									CHANNELS 3 Xrotation Yrotation Zrotation
									JOINT mixamorig:RightHandMiddle2
									{
										OFFSET -3.698196 0.000000 0.000000
										CHANNELS 3 Xrotation Yrotation Zrotation
										JOINT mixamorig:RightHandMiddle3
										{
											OFFSET -2.950897 0.000000 0.000000
											CHANNELS 3 Xrotation Yrotation Zrotation
											JOINT mixamorig:RightHandMiddle4
											{
												OFFSET -2.833900 0.000000 0.000000
												CHANNELS 3 Xrotation Yrotation Zrotation
												End Site
												{
													OFFSET 0.000000 2.833893 0.001318
												}
											}
										}
									}
								}
								JOINT mixamorig:RightHandIndex1
								{
									OFFSET -9.108299 -0.517853 2.259859
									CHANNELS 3 Xrotation Yrotation Zrotation
									JOINT mixamorig:RightHandIndex2
									{
										OFFSET -3.676399 0.000000 0.000000
										CHANNELS 3 Xrotation Yrotation Zrotation
										JOINT mixamorig:RightHandIndex3
										{
											OFFSET -2.883102 0.000000 0.000000
											CHANNELS 3 Xrotation Yrotation Zrotation
											JOINT mixamorig:RightHandIndex4
											{
												OFFSET -2.392700 0.000000 0.000000
												CHANNELS 3 Xrotation Yrotation Zrotation
												End Site
												{
													OFFSET 0.000000 2.392700 0.001113
												}
											}
										}
									}
								}
								JOINT mixamorig:RightHandThumb1
								{
									OFFSET -2.464798 -1.573944 2.681868
									CHANNELS 3 Xrotation Yrotation Zrotation
									JOINT mixamorig:RightHandThumb2
									{
										OFFSET -3.229782 -1.864716 1.864716
										CHANNELS 3 Xrotation Yrotation Zrotation
										JOINT mixamorig:RightHandThumb3
										{
											OFFSET -2.652542 -1.531448 1.531448
											CHANNELS 3 Xrotation Yrotation Zrotation
											JOINT mixamorig:RightHandThumb4
											{
												OFFSET -1.954605 -1.128494 1.128493
												CHANNELS 3 Xrotation Yrotation Zrotation
												End Site
												{
													OFFSET 0.000412 2.523392 0.000704
												}
											}
										}
									}
								}
							}
						}
					}
				}
			}
		}
	}
	JOINT mixamorig:LeftUpLeg
	{
		OFFSET 8.207800 -6.751701 -1.599600
		CHANNELS 3 Xrotation Yrotation Zrotation
		JOINT mixamorig:LeftLeg
		{
			OFFSET 0.000000 -44.370499 0.284600
			CHANNELS 3 Xrotation Yrotation Zrotation
			JOINT mixamorig:LeftFoot
			{
				OFFSET 0.000000 -44.427898 -2.982200
				CHANNELS 3 Xrotation Yrotation Zrotation
				JOINT mixamorig:LeftToeBase
				{
					OFFSET 0.000000 -8.728700 10.710600
					CHANNELS 3 Xrotation Yrotation Zrotation
					JOINT mixamorig:LeftToe_End
					{
						OFFSET 0.000000 -0.000700 9.278099
						CHANNELS 3 Xrotation Yrotation Zrotation
						End Site
						{
							OFFSET 0.000000 9.278100 0.000000
						}
					}
				}
			}
		}
	}
	JOINT mixamorig:RightUpLeg
	{
		OFFSET -8.207800 -6.751701 -1.599600
		CHANNELS 3 Xrotation Yrotation Zrotation
		JOINT mixamorig:RightLeg
		{
			OFFSET 0.000000 -44.370499 0.286200
			CHANNELS 3 Xrotation Yrotation Zrotation
			JOINT mixamorig:RightFoot
			{
				OFFSET 0.000000 -44.427700 -2.983800
				CHANNELS 3 Xrotation Yrotation Zrotation
				JOINT mixamorig:RightToeBase
				{
					OFFSET 0.000000 -8.728700 10.710600
					CHANNELS 3 Xrotation Yrotation Zrotation
					JOINT mixamorig:RightToe_End
					{
						OFFSET 0.000000 -0.000700 9.278100
						CHANNELS 3 Xrotation Yrotation Zrotation
						End Site
						{
							OFFSET 0.000000 9.278100 0.000000
						}
					}
				}
			}
		}
	}
}
MOTION
Frames: 4
Frame Time: 0.033333
0.370399 90.456322 1.091393 11.294264 -0.974367 -5.355732 9.998750 1.456357 7.507401 2.029112 -0.047010 0.508498 4.987205 -0.052526 0.186542 -3.841283 -0.341670 -0.277917 -16.135765 0.809280 -3.139614 -0.000000 -0.000000 0.000000 -0.000000 -0.000000 0.000000 -0.000000 -0.000000 0.000000 0.557767 -4.314582 -11.777470 13.923805 -4.817004 -56.121400 -0.000000 -89.999996 0.000001 3.946653 -2.534501 11.903132 -0.820504 6.623771 -5.864585 14.168502 15.386726 18.402784 -0.846954 -39.830460 12.903484 0.000003 0.000000 0.000000 9.947290 5.735738 -90.836243 4.054205 5.569251 -72.086411 5.462400 5.838197 -86.184795 0.000001 -0.000001 0.000000 4.883441 8.107983 -80.603383 4.657609 5.728465 -78.210761 3.078737 5.154595 -61.676110 -0.000001 0.000001 -0.000001 2.753116 7.678703 -78.443514 5.946869 5.850273 -90.939891 3.878878 5.509750 -70.270175 -0.000001 0.000000 0.000000 7.311301 13.596484 -78.537244 4.413842 5.672383 -75.756948 4.171601 5.605656 -73.291953 0.000003 0.000004 0.000000 0.567969 4.488693 11.813872 -16.187046 25.518746 44.451189 0.428090 90.271796 -0.428312 7.843972 11.318592 -12.809328 -1.444013 -6.451865 84.219518 3.515520 -4.515361 75.795067 1.230065 -3.155324 42.587179 -0.000002 0.000003 -0.000004 -3.819526 -5.359656 78.849534 3.124260 -4.398167 70.762857 2.797485 -4.270501 66.441874 0.000001 0.000001 0.000001 -3.073210 -4.980244 74.622358 3.766074 -4.571324 78.956994 3.246675 -4.438884 72.351934 0.000002 0.000000 -0.000002 -3.723525 -3.298357 73.104990 3.463135 -4.501835 75.128481 2.055816 -3.864247 56.013876 -0.000001 -0.000001 0.000000 5.535806 -3.771050 -3.032814 2.457536 -9.078651 -15.939548 -8.950797 17.083968 -15.511817 -0.000000 -0.000001 0.000001 -49.265434 -0.526785 8.414647 128.540021 5.180098 0.398376 -3.882112 0.854805 -2.602156 -0.230049 -0.000003 -0.000001 0.000001 -0.000001 -0.000000 -36.185222 -10.764676 6.227941 56.690936 0.436196 1.304357 -31.598490 2.582055 -7.271852 1.449356 -0.000003 -0.000001 0.000000 0.000001 0.000000 
0.473553 91.152588 15.917965 9.495704 -1.568711 -1.806841 10.562735 6.507422 2.921942 2.448852 2.688737 0.185388 5.397916 2.716143 -0.160323 -3.448253 -1.895769 -0.088234 -15.249041 -7.164802 -4.298840 0.000000 0.000000 0.000000 0.000000 0.000000 0.000000 0.000000 0.000000 0.000000 0.569232 -4.246333 -10.514047 19.027553 -2.706319 -54.289813 0.000042 -78.214798 0.000035 -0.703474 -8.180846 7.504894 -0.820507 6.623768 -5.864585 12.684003 24.473915 16.885804 1.245616 -38.777986 16.714055 0.000002 0.000001 -0.000001 9.828722 5.310225 -94.449338 3.956354 5.536800 -71.075010 5.359501 5.830442 -85.172391 0.000002 0.000001 -0.000000 5.081809 8.139379 -81.474376 4.650108 5.726904 -78.135602 3.072470 5.151227 -61.606326 -0.000002 0.000002 -0.000001 2.490413 7.721436 -80.690448 5.954809 5.850144 -91.017755 3.883106 5.511271 -70.314134 -0.000002 -0.000001 0.000000 6.644082 13.275417 -77.106019 4.434290 5.677508 -75.963779 4.191731 5.611626 -73.497917 0.000004 -0.000001 0.000002 0.594139 2.876655 10.577182 -28.525051 34.758447 45.092018 0.000013 76.225861 0.000004 5.320540 18.161242 -20.323674 -1.272728 -6.514360 84.690207 3.527808 -4.518459 75.951219 1.239131 -3.165139 42.751469 0.000001 0.000002 -0.000002 -3.617882 -5.411469 78.942240 3.138270 -4.403033 70.945646 2.811880 -4.276727 66.634622 -0.000000 -0.000001 0.000001 -2.360403 -5.221339 75.042762 3.732027 -4.564554 78.529738 3.216198 -4.429100 71.957798 -0.000002 0.000002 -0.000000 -3.401850 -3.762365 74.852405 3.444897 -4.496945 74.895982 2.040180 -3.853695 55.781721 0.000000 -0.000001 0.000002 5.535800 -3.771051 -3.032814 1.839151 -11.428915 -11.839563 -9.559888 16.295074 -12.393555 0.000001 -0.000002 0.000001 -60.693484 -0.202100 5.752574 122.575435 1.189690 0.220944 -9.160986 0.392570 0.695238 2.343436 0.000001 -0.000001 -0.000000 0.000000 0.000000 -20.593942 -10.017217 4.183235 50.232360 2.638267 -1.771736 -39.262806 2.415535 -5.777170 1.661397 0.000001 0.000001 0.000000 0.000000 0.000000 
0.235606 93.400269 31.238422 10.083323 -1.632940 3.221745 9.824763 9.558086 -3.351199 1.806204 4.221055 -0.129791 4.693377 4.270933 -0.487553 -2.715950 -2.434358 -1.378377 -11.292710 -13.609969 -1.223615 -0.000000 0.000000 -0.000000 -0.000000 0.000000 -0.000000 -0.000000 0.000000 -0.000000 0.546835 -1.595875 -8.401359 27.857540 -2.991388 -51.932589 -0.000020 -73.980470 -0.000017 -3.987176 -9.102750 9.942142 -0.820505 6.623771 -5.864582 12.248821 27.095127 16.873777 1.873692 -39.476987 17.766633 0.000001 0.000000 -0.000001 10.316372 5.385167 -96.241682 3.889440 5.513513 -70.380188 5.288877 5.824086 -84.476859 0.000004 -0.000000 0.000001 5.021235 8.131162 -80.174359 4.608183 5.717969 -77.715094 3.035146 5.130954 -61.189848 0.000003 -0.000002 0.000000 2.376633 7.675465 -80.087718 5.917327 5.850692 -90.649902 3.847457 5.498442 -69.942565 -0.000001 0.000001 0.000001 7.039910 14.017478 -75.405999 4.433144 5.677231 -75.952182 4.190513 5.611275 -73.485527 -0.000001 0.000000 -0.000001 0.579289 4.688404 5.980674 -33.567713 32.898224 46.516757 0.000232 74.842522 -0.000219 4.654528 23.600996 -20.313814 -1.252874 -6.386505 83.345882 3.456611 -4.500091 75.045515 1.190119 -3.111351 41.856144 0.000003 -0.000002 0.000002 -3.854884 -5.055136 76.709711 3.111170 -4.393596 70.592280 2.785120 -4.265103 66.275368 -0.000002 -0.000001 0.000001 -2.590263 -4.988301 73.533632 3.668205 -4.551171 77.726556 3.153819 -4.408344 71.148284 -0.000001 -0.000001 0.000002 -3.181561 -3.651040 72.589516 3.349613 -4.470239 73.677298 1.959011 -3.797365 54.565097 0.000000 -0.000001 -0.000001 5.535803 -3.771047 -3.032814 1.597923 -14.093254 -6.555735 -9.934794 15.833577 -10.397916 0.000001 0.000000 0.000001 -69.182925 0.738271 -0.044607 108.914716 1.076858 -0.269046 -13.094355 0.482618 -1.483757 3.168509 -0.000001 -0.000001 -0.000001 -0.000000 -0.000000 -4.849129 -11.442628 0.328390 34.189209 2.195169 -4.741256 -32.027519 4.017962 -1.891071 -7.347760 -0.003572 0.595100 -0.000000 0.000000 0.000000 
-0.134501 95.379692 46.291889 10.451860 -0.314624 9.775315 10.182306 11.288575 -11.753512 1.223814 4.891578 -0.493295 4.023679 4.946700 -0.874608 -2.678858 -3.199900 -0.060922 -7.837010 -17.807876 0.344074 0.000001 -0.000000 -0.000000 0.000001 -0.000000 -0.000000 0.000001 -0.000000 -0.000000 0.413861 0.873490 -5.768263 35.277152 -3.434528 -48.712042 -0.000020 -72.850101 -0.000015 -4.326121 -11.007506 10.017670 -0.820505 6.623771 -5.864584 11.731677 29.778682 17.111519 3.302256 -41.969306 19.846638 -0.000004 0.000001 -0.000001 10.981397 5.430243 -98.757951 3.874097 5.508047 -70.220403 5.272653 5.822504 -84.316903 0.000000 -0.000001 0.000000 4.938419 8.117978 -81.409161 4.602837 5.716824 -77.661498 3.029544 5.127884 -61.127167 0.000001 -0.000001 0.000002 2.711534 7.755637 -80.654897 5.916225 5.850700 -90.639206 3.848429 5.498800 -69.952673 -0.000001 -0.000001 0.000004 7.759364 14.788241 -75.237184 4.460160 5.683886 -76.225150 4.217133 5.619064 -73.757574 -0.000003 0.000000 -0.000000 0.509453 3.425875 2.696161 -33.028636 32.231844 44.513306 -0.000022 79.060041 0.000054 3.042387 19.183073 -22.019056 -1.580319 -6.211277 81.975138 3.396373 -4.483615 74.276272 1.148087 -3.063888 41.075996 0.000003 0.000000 -0.000001 -4.075608 -4.775283 75.111536 3.078261 -4.381913 70.162148 2.752642 -4.250698 65.837846 -0.000000 0.000001 -0.000002 -2.650951 -4.734610 71.477055 3.634139 -4.543655 77.296807 3.120951 -4.397025 70.720168 0.000002 0.000001 -0.000001 -3.180940 -3.345018 70.064019 3.271123 -4.446566 72.667578 1.892685 -3.749367 53.557129 -0.000001 0.000001 0.000000 5.535803 -3.771049 -3.032819 1.751854 -16.102316 -1.902184 -10.042400 15.671002 -9.785422 0.000000 -0.000000 -0.000002 -73.009641 2.347005 -8.746501 90.678302 8.843717 0.183158 -15.291764 0.622995 -3.797642 1.959997 -0.000001 -0.000005 0.000000 -0.000000 -0.000000 2.498371 -15.491390 -6.767741 26.924662 3.605031 -5.539833 -3.976105 6.318044 3.765045 -38.153208 0.000084 -0.083572 0.000000 -0.000000 -0.000000 
